<mxfile host="app.diagrams.net" modified="2022-04-28T11:59:56.327Z" agent="5.0 (Windows NT 10.0; Win64; x64) AppleWebKit/537.36 (KHTML, like Gecko) Chrome/100.0.4896.127 Safari/537.36" etag="1qsOvR8dBKGtWE4kQs--" version="17.4.6" type="github">
  <diagram id="NpPy4WyL9REn1ckdncuI" name="Page-1">
    <mxGraphModel dx="2607" dy="1453" grid="1" gridSize="10" guides="1" tooltips="1" connect="1" arrows="1" fold="1" page="1" pageScale="1" pageWidth="1169" pageHeight="827" math="0" shadow="0">
      <root>
        <mxCell id="0" />
        <mxCell id="1" parent="0" />
        <mxCell id="UebogpzNbyLLe4sl_Y7g-1" value="" style="rounded=1;whiteSpace=wrap;html=1;fillColor=none;strokeWidth=3;" vertex="1" parent="1">
          <mxGeometry x="40" y="40" width="2240" height="1550" as="geometry" />
        </mxCell>
        <mxCell id="UebogpzNbyLLe4sl_Y7g-2" value="&lt;font style=&quot;font-size: 70px&quot; face=&quot;Garamond&quot; color=&quot;#3399ff&quot;&gt;db_portfolio&lt;/font&gt;" style="rounded=1;whiteSpace=wrap;html=1;strokeWidth=3;fillColor=none;" vertex="1" parent="1">
          <mxGeometry x="920" y="40" width="480" height="90" as="geometry" />
        </mxCell>
      </root>
    </mxGraphModel>
  </diagram>
</mxfile>
